<svg version="1.0" xmlns="http://www.w3.org/2000/svg"
 width="300" height="300" viewBox="0 0 900 897">
  <defs>
    <style type="text/css">
      path {
        stroke-width: 100;
        fill: #f6f6f6;
        stroke: #474747;
        stroke-dasharray:40000;
        stroke-dashoffset:40000
      }
      .main-path {animation: dash 5s linear forwards}
      .path-1 {animation: dash 5s .5s linear forwards}
      .path-2 {animation: dash 5s 1s linear forwards}
      .path-3 {animation: dash 5s 1.5s linear forwards}
      .path-4 {animation: dash 5s 2s linear forwards}
      .path-5 {animation: dash 5s 2.5s linear forwards}
      .path-6 {animation: dash 5s 3s linear forwards}
      .path-7 {animation: dash 5s 3.5s linear forwards}
      .path-8 {animation: dash 5s 4s linear forwards}
      .path-9 {animation: dash 5s 4.5s linear forwards}
      @keyframes dash {
       from {stroke-dashoffset: 40000}
       to {stroke-dashoffset: 0}
      }
    </style>
  </defs>
<g transform="translate(0, 897) scale(0.1, -0.1)">
<path class="main-path" d="M4183 8958 c1 -9 -26 -15 -93 -21 -123 -10 -304 -34 -405 -53 -166
-33 -231 -47 -274 -60 -25 -8 -52 -14 -61 -14 -18 0 -206 -58 -380 -119 -79
-27 -247 -94 -316 -126 -147 -69 -357 -178 -414 -215 -8 -6 -22 -13 -30 -17
-8 -3 -34 -19 -57 -35 -23 -15 -44 -28 -47 -28 -4 0 -75 -47 -231 -155 -77
-52 -270 -208 -365 -293 -208 -187 -422 -419 -593 -644 -75 -99 -237 -334
-237 -345 0 -3 -6 -14 -14 -22 -14 -17 -30 -45 -126 -221 -80 -147 -152 -301
-213 -455 -45 -114 -115 -315 -132 -380 -8 -27 -25 -92 -39 -143 -14 -51 -36
-147 -50 -215 -72 -349 -90 -534 -90 -922 0 -326 15 -513 59 -764 63 -354 183
-755 306 -1018 16 -35 29 -65 29 -69 0 -3 33 -72 74 -152 438 -873 1150 -1581
2021 -2011 236 -117 369 -169 685 -273 19 -6 49 -14 65 -18 17 -4 64 -17 106
-28 72 -20 180 -44 349 -77 444 -86 1109 -86 1560 1 155 30 236 47 285 59 139
36 183 49 220 60 22 7 78 25 125 40 100 31 253 89 293 110 16 8 33 15 38 15
18 0 254 114 419 203 230 123 517 322 745 516 123 104 387 365 475 468 512
604 841 1264 999 2008 69 325 94 568 94 935 0 287 -17 498 -57 740 -134 794
-483 1545 -1004 2155 -149 175 -396 421 -543 540 -176 143 -278 218 -434 320
-49 32 -139 88 -200 123 -116 67 -467 242 -486 242 -6 0 -23 6 -37 14 -46 25
-288 113 -412 149 -30 9 -77 23 -105 31 -201 60 -550 122 -800 144 -63 5 -89
11 -87 20 1 9 -66 12 -308 12 -243 0 -309 -3 -307 -12z m732 -463 c140 -16
278 -38 390 -61 98 -21 235 -54 265 -63 14 -5 50 -16 80 -25 72 -21 172 -53
202 -65 12 -5 41 -16 63 -24 271 -102 599 -271 822 -423 350 -239 687 -553
936 -874 149 -191 239 -327 349 -525 42 -74 188 -373 188 -384 0 -4 11 -34 25
-66 24 -53 60 -151 105 -285 137 -411 207 -966 181 -1434 -7 -111 -19 -253
-27 -316 -83 -632 -329 -1268 -683 -1769 -36 -51 -73 -103 -81 -115 -85 -125
-402 -479 -440 -491 -13 -4 -43 7 -87 33 -38 22 -86 50 -108 62 -22 12 -128
73 -235 135 -107 62 -213 123 -235 135 -99 55 -155 92 -155 104 0 6 21 28 48
48 116 90 348 336 473 503 265 352 454 758 547 1170 62 274 75 399 75 695 1
356 -28 555 -129 900 -84 284 -263 656 -420 870 -19 25 -48 65 -66 90 -148
204 -393 452 -606 614 -64 49 -280 196 -288 196 -2 0 -23 12 -47 27 -53 33
-251 132 -337 169 -617 259 -1268 317 -1930 170 -59 -13 -88 -21 -230 -61 -25
-7 -83 -27 -130 -45 -47 -18 -103 -39 -125 -47 -81 -29 -343 -164 -455 -234
-271 -169 -556 -416 -754 -653 -401 -480 -640 -1044 -711 -1675 -21 -183 -16
-559 9 -734 69 -479 248 -943 515 -1332 68 -99 172 -235 226 -295 72 -80 269
-275 328 -326 39 -32 56 -54 53 -64 -4 -8 -45 -37 -93 -65 -48 -27 -96 -55
-108 -62 -11 -7 -27 -16 -35 -20 -8 -4 -71 -40 -139 -80 -67 -40 -124 -73
-126 -73 -2 0 -50 -27 -107 -61 -151 -89 -187 -109 -201 -109 -26 0 -271 263
-400 430 -91 117 -95 123 -168 230 -147 215 -328 556 -403 757 -53 142 -99
276 -113 323 -98 353 -134 543 -158 844 -39 470 4 945 124 1391 59 217 199
588 279 736 16 29 48 90 72 134 23 44 66 117 94 163 28 46 56 91 61 100 127
212 442 586 654 776 36 32 84 75 106 95 108 99 362 284 530 386 112 68 346
195 359 195 6 0 20 6 31 13 11 7 72 35 135 61 63 27 124 52 135 57 11 5 34 13
50 18 17 5 55 19 85 31 30 11 71 25 90 30 19 5 60 16 90 25 215 64 436 108
690 139 165 20 696 21 865 1z m-95 -995 c182 -23 335 -52 465 -87 155 -42 409
-134 504 -183 9 -4 45 -23 81 -40 372 -187 705 -452 979 -778 90 -108 116
-144 205 -277 149 -223 260 -452 350 -718 44 -131 103 -371 116 -470 5 -40 15
-108 21 -152 8 -47 13 -184 13 -335 0 -212 -4 -281 -23 -410 -12 -85 -26 -171
-31 -190 -5 -19 -19 -75 -31 -125 -27 -115 -93 -321 -130 -403 -16 -35 -29
-68 -29 -73 0 -28 -153 -310 -263 -484 -81 -129 -287 -375 -433 -515 -138
-133 -202 -183 -229 -176 -27 7 -210 113 -224 130 -7 9 2 21 35 46 701 543
1103 1349 1104 2213 0 219 -34 500 -82 677 -11 41 -24 89 -28 105 -13 54 -72
218 -117 325 -182 429 -508 843 -888 1126 -141 105 -231 162 -405 255 -52 28
-211 100 -240 110 -14 4 -50 17 -80 29 -30 12 -68 26 -85 30 -16 5 -61 18
-100 29 -337 98 -696 131 -1050 96 -149 -15 -280 -35 -359 -56 -134 -35 -171
-45 -261 -75 -55 -17 -113 -38 -130 -44 -250 -103 -501 -244 -690 -389 -156
-119 -349 -309 -480 -471 -67 -84 -203 -277 -214 -305 -2 -5 -14 -26 -26 -45
-12 -19 -44 -80 -72 -135 -145 -291 -228 -555 -274 -872 -41 -279 -26 -716 32
-963 30 -128 86 -323 113 -390 147 -368 276 -585 514 -862 121 -141 411 -408
444 -408 4 0 8 -9 8 -19 0 -23 -195 -141 -233 -141 -16 0 -54 26 -113 77 -426
373 -738 845 -909 1374 -69 214 -105 382 -131 612 -27 244 -9 698 35 882 6 22
21 90 35 150 27 118 92 322 131 412 14 30 25 59 25 64 0 19 145 300 203 394
57 92 172 255 233 331 112 139 343 371 453 454 18 14 47 37 65 51 145 118 409
276 621 371 293 131 625 219 940 248 66 6 129 13 140 15 39 7 411 -4 495 -15z
m-70 -421 c249 -22 489 -81 735 -179 151 -61 312 -144 435 -225 312 -206 566
-456 762 -750 294 -441 438 -917 439 -1450 1 -632 -225 -1230 -644 -1707 -176
-200 -457 -438 -516 -438 -16 0 -34 7 -41 15 -7 8 -16 15 -21 15 -5 0 -39 18
-75 41 -37 22 -77 45 -88 50 -12 5 -34 18 -51 29 -16 11 -41 24 -54 30 -13 6
-35 19 -50 29 -14 10 -51 32 -81 48 -57 32 -702 402 -755 434 -16 10 -54 31
-84 46 -30 15 -67 40 -82 55 -28 25 -29 31 -30 115 -1 48 -3 129 -5 178 -15
355 -11 504 16 540 8 11 82 231 145 430 21 66 48 152 60 190 13 39 44 138 70
220 26 83 74 236 107 340 32 105 80 255 105 335 25 80 59 185 76 234 39 115
41 170 7 197 -83 64 -141 25 -173 -116 -9 -38 -30 -133 -47 -210 -17 -77 -44
-196 -60 -265 -15 -69 -49 -217 -75 -330 -25 -113 -59 -261 -75 -330 -16 -69
-33 -145 -38 -170 -13 -61 -78 -351 -97 -427 -8 -34 -15 -71 -15 -82 0 -28
-16 -27 -23 2 -22 90 -17 596 13 1257 35 766 40 895 40 988 0 96 -2 105 -25
127 -15 16 -36 25 -55 25 -37 0 -85 -23 -94 -45 -10 -26 -7 -155 9 -490 62
-1296 70 -1615 45 -1845 -5 -52 -12 -201 -14 -330 -2 -129 -7 -302 -11 -383
l-8 -149 -36 -23 c-32 -20 -296 -173 -406 -235 -22 -12 -80 -46 -130 -75 -49
-29 -106 -62 -125 -73 -19 -11 -102 -59 -185 -107 -82 -48 -170 -99 -195 -113
-25 -14 -76 -44 -115 -67 -38 -22 -77 -44 -85 -48 -8 -4 -37 -21 -65 -37 -27
-16 -57 -29 -65 -30 -29 0 -234 165 -361 290 -228 225 -382 435 -515 701 -149
298 -239 619 -265 944 -63 779 206 1513 755 2061 260 259 518 434 846 572 105
44 292 109 355 122 22 4 94 19 160 33 103 22 255 40 425 51 61 3 191 -2 330
-15z m-177 -4114 c32 -19 60 -35 62 -35 2 0 48 -26 102 -58 54 -32 105 -61
113 -65 8 -4 22 -11 30 -16 27 -17 164 -97 215 -126 27 -15 122 -69 210 -120
260 -150 497 -287 535 -308 19 -10 78 -44 130 -74 52 -30 102 -58 110 -63 8
-5 50 -29 93 -54 43 -25 82 -46 87 -46 6 0 10 -7 10 -15 0 -13 -32 -15 -226
-15 l-226 0 -46 38 c-26 20 -49 40 -52 43 -3 3 -71 56 -151 116 -231 173 -601
413 -849 550 -116 64 -198 108 -275 149 -44 24 -80 48 -80 55 0 16 104 79 130
79 11 0 46 -16 78 -35z m-243 -188 c422 -219 849 -483 1149 -709 101 -76 129
-103 118 -115 -3 -3 -65 -9 -139 -13 -73 -5 -164 -14 -203 -19 -38 -6 -78 -11
-88 -11 -9 0 -65 46 -125 101 -216 203 -557 450 -887 642 -77 44 -125 79 -120
86 4 8 78 52 144 87 28 15 29 14 151 -49z m-336 -185 c44 -26 90 -52 101 -59
11 -7 27 -15 35 -19 8 -4 34 -20 57 -36 23 -15 44 -28 48 -28 3 0 18 -8 33
-19 15 -10 77 -51 137 -92 266 -175 567 -421 551 -448 -4 -6 -24 -11 -44 -11
-20 0 -57 -5 -82 -11 -24 -5 -74 -14 -110 -19 -36 -5 -82 -12 -102 -16 -36 -6
-40 -4 -110 63 -193 183 -390 333 -668 507 -36 23 -74 47 -85 54 -11 6 -29 16
-40 21 -11 5 -28 18 -38 29 -20 22 -19 22 118 97 28 15 54 32 60 37 15 14 50
1 139 -50z m-259 -278 c283 -171 689 -485 660 -512 -5 -5 -71 -22 -145 -37
-217 -45 -192 -48 -269 32 -115 120 -265 237 -529 413 -78 52 -142 99 -142
105 0 10 83 62 169 107 l34 18 71 -39 c39 -21 107 -60 151 -87z m-462 -146
c54 -35 106 -67 115 -73 69 -40 317 -225 415 -309 89 -77 98 -102 40 -111 -21
-4 -60 -14 -88 -22 -27 -9 -75 -17 -106 -17 -53 -1 -60 2 -110 45 -92 78 -248
192 -389 283 -74 49 -152 100 -173 114 l-38 25 28 23 c15 13 31 23 34 24 4 0
38 18 75 40 38 22 76 40 84 40 9 0 60 -28 113 -62z m-422 -171 c19 -13 41 -26
49 -30 25 -11 260 -165 343 -225 130 -93 133 -91 -131 -85 -140 3 -235 10
-248 17 -12 6 -48 32 -80 59 -33 26 -89 68 -126 93 -37 25 -72 52 -78 59 -8
10 11 26 92 73 57 33 112 60 124 61 12 1 36 -9 55 -22z m3529 -168 l185 -11
75 -41 c41 -23 92 -51 113 -62 20 -11 36 -24 34 -30 -2 -6 -112 -12 -298 -16
-506 -10 -1082 -63 -1424 -131 -27 -5 -75 -13 -105 -18 -30 -5 -97 -18 -149
-29 -70 -16 -103 -19 -135 -12 -96 21 -282 56 -468 87 -98 16 -128 29 -86 38
113 23 193 40 245 52 34 8 72 14 85 14 13 0 52 6 88 14 60 14 106 21 368 61
90 14 203 27 462 56 129 14 520 35 695 38 72 0 213 -4 315 -10z m-3845 -79
c86 -57 115 -83 97 -93 -9 -5 -201 -17 -299 -18 -71 -1 -123 16 -123 41 0 11
199 130 218 130 8 0 56 -27 107 -60z m4570 -241 c59 -31 71 -63 30 -79 -14 -5
-71 -10 -127 -10 -307 0 -840 -67 -1233 -155 -152 -34 -174 -37 -207 -26 -116
39 -398 122 -461 136 -16 3 -27 11 -24 18 4 14 73 30 227 51 502 69 897 95
1420 92 l325 -1 50 -26z m-3536 -4 c517 -44 927 -110 1361 -221 58 -14 121
-30 140 -33 19 -4 51 -13 70 -19 19 -7 82 -26 140 -43 87 -25 261 -82 430
-140 19 -7 69 -25 110 -42 41 -16 93 -36 115 -44 22 -9 49 -19 60 -24 223 -92
223 -92 207 -115 -6 -11 -193 -95 -252 -114 -14 -5 -56 -20 -93 -34 -76 -28
-64 -30 -207 37 -192 90 -395 176 -560 237 -144 54 -164 62 -198 76 -18 8 -39
14 -47 14 -8 0 -29 6 -47 14 -18 8 -80 29 -138 46 -58 18 -123 38 -145 45 -22
7 -69 21 -105 30 -122 33 -175 48 -219 61 -25 8 -53 14 -64 14 -11 0 -43 7
-71 15 -28 8 -87 22 -131 30 -44 9 -109 23 -145 30 -36 7 -112 21 -170 30 -58
9 -143 23 -190 30 -86 14 -275 35 -500 56 -69 7 -296 15 -505 18 -307 5 -372
8 -340 17 142 40 1135 60 1494 29z m-1581 -62 c-16 -2 -40 -2 -55 0 -16 2 -3
4 27 4 30 0 43 -2 28 -4z m707 -123 c403 -19 802 -69 1155 -145 36 -8 99 -21
140 -30 71 -15 130 -29 245 -59 117 -31 182 -49 220 -61 22 -7 67 -20 100 -30
33 -10 71 -22 85 -28 14 -5 39 -13 55 -17 17 -4 86 -28 155 -53 69 -25 141
-51 160 -58 71 -24 179 -68 330 -134 85 -37 171 -73 190 -80 64 -24 42 -44
-85 -75 -96 -23 -220 -48 -276 -55 -60 -7 -59 -8 -214 80 -125 71 -456 226
-545 255 -14 5 -50 18 -80 30 -106 41 -379 129 -510 164 -126 35 -168 46 -232
61 -291 68 -537 113 -818 149 -249 32 -291 37 -450 47 -91 6 -169 14 -174 19
-28 28 199 36 549 20z m4245 -48 c0 -8 -89 -75 -209 -156 -29 -20 -65 -39 -80
-42 -52 -12 -138 -37 -241 -71 -110 -36 -153 -38 -209 -9 -49 26 -225 99 -266
111 -11 3 -31 14 -45 25 -29 22 -31 21 95 43 245 43 406 67 605 91 131 15 350
20 350 8z m-4530 -127 c421 -45 760 -100 1110 -181 122 -28 200 -49 340 -89
30 -9 80 -23 110 -32 30 -8 66 -20 80 -25 14 -6 63 -22 110 -38 82 -26 243
-87 305 -115 17 -7 46 -20 65 -28 19 -9 99 -46 177 -83 129 -61 164 -86 147
-103 -11 -12 -591 -13 -696 -2 -89 10 -108 15 -143 41 -123 92 -299 200 -435
267 -85 42 -164 80 -174 86 -11 5 -31 13 -45 17 -14 5 -51 18 -81 30 -257 101
-572 175 -933 220 -98 12 -141 25 -132 40 8 13 25 13 195 -5z m291 -226 c52
-12 110 -24 129 -29 44 -10 142 -36 183 -50 241 -77 333 -112 487 -188 142
-70 229 -126 216 -139 -4 -4 -250 51 -296 66 -14 4 -52 16 -85 26 -130 38
-316 104 -420 149 -136 59 -306 143 -335 166 l-25 20 26 0 c14 0 68 -9 120
-21z"/>
<path class="path-1" d="M3839 5901 c-16 -16 -29 -40 -29 -54 0 -18 115 -399 159 -527 5 -14
23 -72 41 -130 18 -58 45 -143 60 -190 16 -47 49 -152 75 -235 25 -82 52 -168
60 -190 7 -22 41 -130 75 -240 33 -110 67 -215 75 -233 8 -18 15 -41 15 -50 0
-10 6 -26 14 -37 7 -11 18 -33 25 -50 l11 -30 -5 35 c-16 100 -25 151 -38 210
-35 153 -69 301 -89 380 -11 47 -28 123 -38 170 -10 47 -34 157 -54 245 -20
88 -51 221 -68 295 -16 74 -43 191 -59 260 -15 69 -37 167 -49 218 -34 153
-52 182 -112 182 -30 0 -46 -7 -69 -29z"/>
<path class="path-2" d="M3270 5603 c-59 -54 -54 -69 72 -258 891 -1330 965 -1439 1001 -1479
41 -47 8 25 -103 224 -29 52 -96 172 -148 265 -52 94 -115 206 -140 250 -25
44 -57 103 -72 130 -54 99 -83 150 -90 160 -4 6 -27 46 -50 90 -24 44 -52 96
-63 115 -24 42 -111 200 -141 253 -12 21 -26 46 -31 55 -6 9 -30 53 -54 97
-70 127 -119 153 -181 98z"/>
<path class="path-3" d="M5583 5602 c-24 -25 -85 -129 -219 -371 -32 -60 -64 -116 -139 -251
-26 -47 -58 -103 -70 -125 -12 -22 -46 -83 -75 -135 -29 -52 -62 -113 -75
-135 -12 -22 -55 -98 -95 -170 -40 -71 -84 -150 -98 -175 -13 -25 -33 -58 -42
-75 -37 -61 -160 -293 -160 -301 0 -19 29 16 112 136 94 137 400 591 428 635
8 13 137 204 285 425 149 220 276 411 282 423 22 39 16 86 -16 118 -39 38 -80
39 -118 1z"/>
<path class="path-4" d="M2869 5211 c-56 -22 -85 -72 -68 -119 5 -16 48 -62 97 -104 48 -42
137 -120 198 -174 61 -55 259 -229 440 -389 180 -159 375 -333 434 -385 58
-52 134 -120 169 -150 35 -30 71 -62 80 -70 39 -38 111 -90 111 -82 0 11 -113
135 -276 302 -67 69 -135 139 -150 155 -26 30 -332 349 -530 555 -56 58 -150
157 -210 220 -223 234 -251 258 -295 241z"/>
<path class="path-5" d="M5936 5107 c-56 -56 -180 -186 -276 -287 -96 -101 -231 -243 -300
-315 -69 -71 -173 -179 -230 -240 -58 -60 -155 -161 -216 -225 -61 -63 -124
-128 -138 -145 -15 -16 -53 -56 -83 -88 -31 -32 -53 -61 -49 -65 4 -4 13 0 19
9 7 9 17 18 24 20 10 4 623 540 668 584 11 12 61 56 110 100 177 155 240 211
290 255 27 25 124 111 215 190 91 80 173 154 182 165 26 30 22 78 -8 114 -21
25 -33 31 -66 31 -39 0 -47 -6 -142 -103z"/>
<path class="path-6" d="M2491 4655 c-30 -40 -35 -68 -16 -104 14 -28 115 -80 893 -467 482
-240 889 -442 904 -450 16 -9 29 -10 33 -5 3 5 -6 16 -19 23 -14 7 -134 80
-268 161 -134 82 -252 154 -263 160 -10 7 -37 23 -60 37 -22 13 -48 29 -58 35
-33 19 -658 400 -685 417 -15 10 -36 22 -47 27 -11 5 -37 21 -58 35 -21 14
-40 26 -42 26 -2 0 -24 14 -48 30 -25 17 -48 30 -52 30 -3 0 -26 14 -51 30
-28 20 -62 33 -92 37 -45 5 -51 3 -71 -22z"/>
<path class="path-7" d="M6385 4672 c-12 -4 -58 -29 -104 -57 -45 -27 -90 -54 -99 -60 -10 -5
-40 -23 -67 -39 -28 -16 -80 -49 -117 -73 -37 -23 -69 -43 -72 -43 -3 0 -24
-12 -48 -27 -24 -16 -52 -33 -63 -40 -11 -6 -163 -99 -338 -205 -175 -106
-337 -204 -360 -217 -23 -13 -61 -37 -85 -52 -24 -16 -45 -29 -48 -29 -3 0
-24 -12 -47 -27 -65 -43 -81 -53 -97 -60 -8 -4 -42 -25 -75 -48 -34 -23 -69
-44 -79 -48 -9 -4 -14 -11 -11 -17 4 -7 16 -5 33 4 15 8 423 212 907 453 842
419 880 439 889 470 23 84 -36 141 -119 115z"/>
<path class="path-8" d="M2300 4163 c-89 -31 -76 -163 18 -178 20 -4 57 -12 82 -20 25 -7 77
-20 115 -28 63 -15 229 -54 390 -92 200 -47 419 -99 513 -121 37 -8 92 -21
122 -29 30 -8 87 -21 125 -30 39 -9 95 -22 125 -30 30 -8 89 -21 130 -31 41
-9 95 -23 119 -30 25 -8 56 -14 69 -14 13 0 46 -8 73 -17 37 -13 51 -15 60 -6
9 9 5 13 -17 18 -16 3 -37 10 -46 16 -10 5 -48 19 -85 30 -38 12 -84 27 -103
34 -19 7 -102 34 -185 60 -82 26 -166 53 -185 60 -32 12 -229 76 -700 227
-102 33 -201 66 -220 73 -69 26 -326 104 -355 108 -16 3 -37 2 -45 0z"/>
<path class="path-9" d="M6460 4113 c-74 -25 -151 -51 -170 -58 -19 -7 -123 -41 -230 -76
-317 -102 -643 -208 -675 -220 -16 -6 -43 -14 -60 -19 -16 -4 -41 -12 -55 -18
-14 -5 -92 -32 -175 -58 -235 -74 -265 -84 -283 -94 -9 -5 -29 -11 -44 -15
-16 -3 -28 -10 -28 -15 0 -15 35 -12 77 5 19 8 45 15 57 15 18 0 123 24 326
75 30 7 85 21 123 29 37 9 95 23 130 31 126 30 324 76 387 91 36 8 90 21 120
29 53 13 127 31 260 61 36 9 90 21 120 29 30 8 84 20 120 29 268 63 280 69
280 141 0 30 -6 47 -23 63 -35 33 -100 27 -257 -25z"/>
</g>
</svg>
