<?xml version="1.0" encoding="UTF-8"?>
<svg width="2992px" height="897px" viewBox="0 0 2992 897" version="1.1" xmlns="http://www.w3.org/2000/svg" xmlns:xlink="http://www.w3.org/1999/xlink">
    <!-- Generator: Sketch 50.2 (55047) - http://www.bohemiancoding.com/sketch -->
    <title>Group 2</title>
    <desc>Created with Sketch.</desc>
    <defs></defs>
    <g id="Page-1" stroke="none" stroke-width="1" fill="none" fill-rule="evenodd">
        <g id="Group-2">
            <g id="logo-path" fill="#FFFFFF" fill-rule="nonzero">
                <g id="Group" transform="translate(448.100000, 448.500000) scale(-1, 1) rotate(-180.000000) translate(-448.100000, -448.500000) translate(0.600000, 0.000000)">
                    <path d="M416.7,895.8 C416.8,894.9 414.1,894.3 407.4,893.7 C395.1,892.7 377,890.3 366.9,888.4 C350.3,885.1 343.8,883.7 339.5,882.4 C337,881.6 334.3,881 333.4,881 C331.6,881 312.8,875.2 295.4,869.1 C287.5,866.4 270.7,859.7 263.8,856.5 C249.1,849.6 228.1,838.7 222.4,835 C221.6,834.4 220.2,833.7 219.4,833.3 C218.6,833 216,831.4 213.7,829.8 C211.4,828.3 209.3,827 209,827 C208.6,827 201.5,822.3 185.9,811.5 C178.2,806.3 158.9,790.7 149.4,782.2 C128.6,763.5 107.2,740.3 90.1,717.8 C82.6,707.9 66.4,684.4 66.4,683.3 C66.4,683 65.8,681.9 65,681.1 C63.6,679.4 62,676.6 52.4,659 C44.4,644.3 37.2,628.9 31.1,613.5 C26.6,602.1 19.6,582 17.9,575.5 C17.1,572.8 15.4,566.3 14,561.2 C12.6,556.1 10.4,546.5 9,539.7 C1.8,504.8 0,486.3 0,447.5 C0,414.9 1.5,396.2 5.9,371.1 C12.2,335.7 24.2,295.6 36.5,269.3 C38.1,265.8 39.4,262.8 39.4,262.4 C39.4,262.1 42.7,255.2 46.8,247.2 C90.6,159.9 161.8,89.1 248.9,46.1 C272.5,34.4 285.8,29.2 317.4,18.8 C319.3,18.2 322.3,17.4 323.9,17 C325.6,16.6 330.3,15.3 334.5,14.2 C341.7,12.2 352.5,9.8 369.4,6.5 C413.8,-2.1 480.3,-2.1 525.4,6.6 C540.9,9.6 549,11.3 553.9,12.5 C567.8,16.1 572.2,17.4 575.9,18.5 C578.1,19.2 583.7,21 588.4,22.5 C598.4,25.6 613.7,31.4 617.7,33.5 C619.3,34.3 621,35 621.5,35 C623.3,35 646.9,46.4 663.4,55.3 C686.4,67.6 715.1,87.5 737.9,106.9 C750.2,117.3 776.6,143.4 785.4,153.7 C836.6,214.1 869.5,280.1 885.3,354.5 C892.2,387 894.7,411.3 894.7,448 C894.7,476.7 893,497.8 889,522 C875.6,601.4 840.7,676.5 788.6,737.5 C773.7,755 749,779.6 734.3,791.5 C716.7,805.8 706.5,813.3 690.9,823.5 C686,826.7 677,832.3 670.9,835.8 C659.3,842.5 624.2,860 622.3,860 C621.7,860 620,860.6 618.6,861.4 C614,863.9 589.8,872.7 577.4,876.3 C574.4,877.2 569.7,878.6 566.9,879.4 C546.8,885.4 511.9,891.6 486.9,893.8 C480.6,894.3 478,894.9 478.2,895.8 C478.3,896.7 471.6,897 447.4,897 C423.1,897 416.5,896.7 416.7,895.8 Z M489.9,849.5 C503.9,847.9 517.7,845.7 528.9,843.4 C538.7,841.3 552.4,838 555.4,837.1 C556.8,836.6 560.4,835.5 563.4,834.6 C570.6,832.5 580.6,829.3 583.6,828.1 C584.8,827.6 587.7,826.5 589.9,825.7 C617,815.5 649.8,798.6 672.1,783.4 C707.1,759.5 740.8,728.1 765.7,696 C780.6,676.9 789.6,663.3 800.6,643.5 C804.8,636.1 819.4,606.2 819.4,605.1 C819.4,604.7 820.5,601.7 821.9,598.5 C824.3,593.2 827.9,583.4 832.4,570 C846.1,528.9 853.1,473.4 850.5,426.6 C849.8,415.5 848.6,401.3 847.8,395 C839.5,331.8 814.9,268.2 779.5,218.1 C775.9,213 772.2,207.8 771.4,206.6 C762.9,194.1 731.2,158.7 727.4,157.5 C726.1,157.1 723.1,158.2 718.7,160.8 C714.9,163 710.1,165.8 707.9,167 C705.7,168.2 695.1,174.3 684.4,180.5 C673.7,186.7 663.1,192.8 660.9,194 C651,199.5 645.4,203.2 645.4,204.4 C645.4,205 647.5,207.2 650.2,209.2 C661.8,218.2 685,242.8 697.5,259.5 C724,294.7 742.9,335.3 752.2,376.5 C758.4,403.9 759.7,416.4 759.7,446 C759.8,481.6 756.9,501.5 746.8,536 C738.4,564.4 720.5,601.6 704.8,623 C702.9,625.5 700,629.5 698.2,632 C683.4,652.4 658.9,677.2 637.6,693.4 C631.2,698.3 609.6,713 608.8,713 C608.6,713 606.5,714.2 604.1,715.7 C598.8,719 579,728.9 570.4,732.6 C508.7,758.5 443.6,764.3 377.4,749.6 C371.5,748.3 368.6,747.5 354.4,743.5 C351.9,742.8 346.1,740.8 341.4,739 C336.7,737.2 331.1,735.1 328.9,734.3 C320.8,731.4 294.6,717.9 283.4,710.9 C256.3,694 227.8,669.3 208,645.6 C167.9,597.6 144,541.2 136.9,478.1 C134.8,459.8 135.3,422.2 137.8,404.7 C144.7,356.8 162.6,310.4 189.3,271.5 C196.1,261.6 206.5,248 211.9,242 C219.1,234 238.8,214.5 244.7,209.4 C248.6,206.2 250.3,204 250,203 C249.6,202.2 245.5,199.3 240.7,196.5 C235.9,193.8 231.1,191 229.9,190.3 C228.8,189.6 227.2,188.7 226.4,188.3 C225.6,187.9 219.3,184.3 212.5,180.3 C205.8,176.3 200.1,173 199.9,173 C199.7,173 194.9,170.3 189.2,166.9 C174.1,158 170.5,156 169.1,156 C166.5,156 142,182.3 129.1,199 C120,210.7 119.6,211.3 112.3,222 C97.6,243.5 79.5,277.6 72,297.7 C66.7,311.9 62.1,325.3 60.7,330 C50.9,365.3 47.3,384.3 44.9,414.4 C41,461.4 45.3,508.9 57.3,553.5 C63.2,575.2 77.2,612.3 85.2,627.1 C86.8,630 90,636.1 92.4,640.5 C94.7,644.9 99,652.2 101.8,656.8 C104.6,661.4 107.4,665.9 107.9,666.8 C120.6,688 152.1,725.4 173.3,744.4 C176.9,747.6 181.7,751.9 183.9,753.9 C194.7,763.8 220.1,782.3 236.9,792.5 C248.1,799.3 271.5,812 272.8,812 C273.4,812 274.8,812.6 275.9,813.3 C277,814 283.1,816.8 289.4,819.4 C295.7,822.1 301.8,824.6 302.9,825.1 C304,825.6 306.3,826.4 307.9,826.9 C309.6,827.4 313.4,828.8 316.4,830 C319.4,831.1 323.5,832.5 325.4,833 C327.3,833.5 331.4,834.6 334.4,835.5 C355.9,841.9 378,846.3 403.4,849.4 C419.9,851.4 473,851.5 489.9,849.5 Z M480.4,750 C498.6,747.7 513.9,744.8 526.9,741.3 C542.4,737.1 567.8,727.9 577.3,723 C578.2,722.6 581.8,720.7 585.4,719 C622.6,700.3 655.9,673.8 683.3,641.2 C692.3,630.4 694.9,626.8 703.8,613.5 C718.7,591.2 729.8,568.3 738.8,541.7 C743.2,528.6 749.1,504.6 750.4,494.7 C750.9,490.7 751.9,483.9 752.5,479.5 C753.3,474.8 753.8,461.1 753.8,446 C753.8,424.8 753.4,417.9 751.5,405 C750.3,396.5 748.9,387.9 748.4,386 C747.9,384.1 746.5,378.5 745.3,373.5 C742.6,362 736,341.4 732.3,333.2 C730.7,329.7 729.4,326.4 729.4,325.9 C729.4,323.1 714.1,294.9 703.1,277.5 C695,264.6 674.4,240 659.8,226 C646,212.7 639.6,207.7 636.9,208.4 C634.2,209.1 615.9,219.7 614.5,221.4 C613.8,222.3 614.7,223.5 618,226 C688.1,280.3 728.3,360.9 728.4,447.3 C728.4,469.2 725,497.3 720.2,515 C719.1,519.1 717.8,523.9 717.4,525.5 C716.1,530.9 710.2,547.3 705.7,558 C687.5,600.9 654.9,642.3 616.9,670.6 C602.8,681.1 593.8,686.8 576.4,696.1 C571.2,698.9 555.3,706.1 552.4,707.1 C551,707.5 547.4,708.8 544.4,710 C541.4,711.2 537.6,712.6 535.9,713 C534.3,713.5 529.8,714.8 525.9,715.9 C492.2,725.7 456.3,729 420.9,725.5 C406,724 392.9,722 385,719.9 C371.6,716.4 367.9,715.4 358.9,712.4 C353.4,710.7 347.6,708.6 345.9,708 C320.9,697.7 295.8,683.6 276.9,669.1 C261.3,657.2 242,638.2 228.9,622 C222.2,613.6 208.6,594.3 207.5,591.5 C207.3,591 206.1,588.9 204.9,587 C203.7,585.1 200.5,579 197.7,573.5 C183.2,544.4 174.9,518 170.3,486.3 C166.2,458.4 167.7,414.7 173.5,390 C176.5,377.2 182.1,357.7 184.8,351 C199.5,314.2 212.4,292.5 236.2,264.8 C248.3,250.7 277.3,224 280.6,224 C281,224 281.4,223.1 281.4,222.1 C281.4,219.8 261.9,208 258.1,208 C256.5,208 252.7,210.6 246.8,215.7 C204.2,253 173,300.2 155.9,353.1 C149,374.5 145.4,391.3 142.8,414.3 C140.1,438.7 141.9,484.1 146.3,502.5 C146.9,504.7 148.4,511.5 149.8,517.5 C152.5,529.3 159,549.7 162.9,558.7 C164.3,561.7 165.4,564.6 165.4,565.1 C165.4,567 179.9,595.1 185.7,604.5 C191.4,613.7 202.9,630 209,637.6 C220.2,651.5 243.3,674.7 254.3,683 C256.1,684.4 259,686.7 260.8,688.1 C275.3,699.9 301.7,715.7 322.9,725.2 C352.2,738.3 385.4,747.1 416.9,750 C423.5,750.6 429.8,751.3 430.9,751.5 C434.8,752.2 472,751.1 480.4,750 Z M473.4,707.9 C498.3,705.7 522.3,699.8 546.9,690 C562,683.9 578.1,675.6 590.4,667.5 C621.6,646.9 647,621.9 666.6,592.5 C696,548.4 710.4,500.8 710.5,447.5 C710.6,384.3 688,324.5 646.1,276.8 C628.5,256.8 600.4,233 594.5,233 C592.9,233 591.1,233.7 590.4,234.5 C589.7,235.3 588.8,236 588.3,236 C587.8,236 584.4,237.8 580.8,240.1 C577.1,242.3 573.1,244.6 572,245.1 C570.8,245.6 568.6,246.9 566.9,248 C565.3,249.1 562.8,250.4 561.5,251 C560.2,251.6 558,252.9 556.5,253.9 C555.1,254.9 551.4,257.1 548.4,258.7 C542.7,261.9 478.2,298.9 472.9,302.1 C471.3,303.1 467.5,305.2 464.5,306.7 C461.5,308.2 457.8,310.7 456.3,312.2 C453.5,314.7 453.4,315.3 453.3,323.7 C453.2,328.5 453,336.6 452.8,341.5 C451.3,377 451.7,391.9 454.4,395.5 C455.2,396.6 462.6,418.6 468.9,438.5 C471,445.1 473.7,453.7 474.9,457.5 C476.2,461.4 479.3,471.3 481.9,479.5 C484.5,487.8 489.3,503.1 492.6,513.5 C495.8,524 500.6,539 503.1,547 C505.6,555 509,565.5 510.7,570.4 C514.6,581.9 514.8,587.4 511.4,590.1 C503.1,596.5 497.3,592.6 494.1,578.5 C493.2,574.7 491.1,565.2 489.4,557.5 C487.7,549.8 485,537.9 483.4,531 C481.9,524.1 478.5,509.3 475.9,498 C473.4,486.7 470,471.9 468.4,465 C466.8,458.1 465.1,450.5 464.6,448 C463.3,441.9 456.8,412.9 454.9,405.3 C454.1,401.9 453.4,398.2 453.4,397.1 C453.4,394.3 451.8,394.4 451.1,397.3 C448.9,406.3 449.4,456.9 452.4,523 C455.9,599.6 456.4,612.5 456.4,621.8 C456.4,631.4 456.2,632.3 453.9,634.5 C452.4,636.1 450.3,637 448.4,637 C444.7,637 439.9,634.7 439,632.5 C438,629.9 438.3,617 439.9,583.5 C446.1,453.9 446.9,422 444.4,399 C443.9,393.8 443.2,378.9 443,366 C442.8,353.1 442.3,335.8 441.9,327.7 L441.1,312.8 L437.5,310.5 C434.3,308.5 407.9,293.2 396.9,287 C394.7,285.8 388.9,282.4 383.9,279.5 C379,276.6 373.3,273.3 371.4,272.2 C369.5,271.1 361.2,266.3 352.9,261.5 C344.7,256.7 335.9,251.6 333.4,250.2 C330.9,248.8 325.8,245.8 321.9,243.5 C318.1,241.3 314.2,239.1 313.4,238.7 C312.6,238.3 309.7,236.6 306.9,235 C304.2,233.4 301.2,232.1 300.4,232 C297.5,232 277,248.5 264.3,261 C241.5,283.5 226.1,304.5 212.8,331.1 C197.9,360.9 188.9,393 186.3,425.5 C180,503.4 206.9,576.8 261.8,631.6 C287.8,657.5 313.6,675 346.4,688.8 C356.9,693.2 375.6,699.7 381.9,701 C384.1,701.4 391.3,702.9 397.9,704.3 C408.2,706.5 423.4,708.3 440.4,709.4 C446.5,709.7 459.5,709.2 473.4,707.9 Z M455.7,296.5 C458.9,294.6 461.7,293 461.9,293 C462.1,293 466.7,290.4 472.1,287.2 C477.5,284 482.6,281.1 483.4,280.7 C484.2,280.3 485.6,279.6 486.4,279.1 C489.1,277.4 502.8,269.4 507.9,266.5 C510.6,265 520.1,259.6 528.9,254.5 C554.9,239.5 578.6,225.8 582.4,223.7 C584.3,222.7 590.2,219.3 595.4,216.3 C600.6,213.3 605.6,210.5 606.4,210 C607.2,209.5 611.4,207.1 615.7,204.6 C620,202.1 623.9,200 624.4,200 C625,200 625.4,199.3 625.4,198.5 C625.4,197.2 622.2,197 602.8,197 L580.2,197 L575.6,200.8 C573,202.8 570.7,204.8 570.4,205.1 C570.1,205.4 563.3,210.7 555.3,216.7 C532.2,234 495.2,258 470.4,271.7 C458.8,278.1 450.6,282.5 442.9,286.6 C438.5,289 434.9,291.4 434.9,292.1 C434.9,293.7 445.3,300 447.9,300 C449,300 452.5,298.4 455.7,296.5 Z M431.4,277.7 C473.6,255.8 516.3,229.4 546.3,206.8 C556.4,199.2 559.2,196.5 558.1,195.3 C557.8,195 551.6,194.4 544.2,194 C536.9,193.5 527.8,192.6 523.9,192.1 C520.1,191.5 516.1,191 515.1,191 C514.2,191 508.6,195.6 502.6,201.1 C481,221.4 446.9,246.1 413.9,265.3 C406.2,269.7 401.4,273.2 401.9,273.9 C402.3,274.7 409.7,279.1 416.3,282.6 C419.1,284.1 419.2,284 431.4,277.7 Z M397.8,259.2 C402.2,256.6 406.8,254 407.9,253.3 C409,252.6 410.6,251.8 411.4,251.4 C412.2,251 414.8,249.4 417.1,247.8 C419.4,246.3 421.5,245 421.9,245 C422.2,245 423.7,244.2 425.2,243.1 C426.7,242.1 432.9,238 438.9,233.9 C465.5,216.4 495.6,191.8 494,189.1 C493.6,188.5 491.6,188 489.6,188 C487.6,188 483.9,187.5 481.4,186.9 C479,186.4 474,185.5 470.4,185 C466.8,184.5 462.2,183.8 460.2,183.4 C456.6,182.8 456.2,183 449.2,189.7 C429.9,208 410.2,223 382.4,240.4 C378.8,242.7 375,245.1 373.9,245.8 C372.8,246.4 371,247.4 369.9,247.9 C368.8,248.4 367.1,249.7 366.1,250.8 C364.1,253 364.2,253 377.9,260.5 C380.7,262 383.3,263.7 383.9,264.2 C385.4,265.6 388.9,264.3 397.8,259.2 Z M371.9,231.4 C400.2,214.3 440.8,182.9 437.9,180.2 C437.4,179.7 430.8,178 423.4,176.5 C401.7,172 404.2,171.7 396.5,179.7 C385,191.7 370,203.4 343.6,221 C335.8,226.2 329.4,230.9 329.4,231.5 C329.4,232.5 337.7,237.7 346.3,242.2 L349.7,244 L356.8,240.1 C360.7,238 367.5,234.1 371.9,231.4 Z M325.7,216.8 C331.1,213.3 336.3,210.1 337.2,209.5 C344.1,205.5 368.9,187 378.7,178.6 C387.6,170.9 388.5,168.4 382.7,167.5 C380.6,167.1 376.7,166.1 373.9,165.3 C371.2,164.4 366.4,163.6 363.3,163.6 C358,163.5 357.3,163.8 352.3,168.1 C343.1,175.9 327.5,187.3 313.4,196.4 C306,201.3 298.2,206.4 296.1,207.8 L292.3,210.3 L295.1,212.6 C296.6,213.9 298.2,214.9 298.5,215 C298.9,215 302.3,216.8 306,219 C309.8,221.2 313.6,223 314.4,223 C315.3,223 320.4,220.2 325.7,216.8 Z M283.5,199.7 C285.4,198.4 287.6,197.1 288.4,196.7 C290.9,195.6 314.4,180.2 322.7,174.2 C335.7,164.9 336,165.1 309.6,165.7 C295.6,166 286.1,166.7 284.8,167.4 C283.6,168 280,170.6 276.8,173.3 C273.5,175.9 267.9,180.1 264.2,182.6 C260.5,185.1 257,187.8 256.4,188.5 C255.6,189.5 257.5,191.1 265.6,195.8 C271.3,199.1 276.8,201.8 278,201.9 C279.2,202 281.6,201 283.5,199.7 Z M636.4,182.9 L654.9,181.8 L662.4,177.7 C666.5,175.4 671.6,172.6 673.7,171.5 C675.7,170.4 677.3,169.1 677.1,168.5 C676.9,167.9 665.9,167.3 647.3,166.9 C596.7,165.9 539.1,160.6 504.9,153.8 C502.2,153.3 497.4,152.5 494.4,152 C491.4,151.5 484.7,150.2 479.5,149.1 C472.5,147.5 469.2,147.2 466,147.9 C456.4,150 437.8,153.5 419.2,156.6 C409.4,158.2 406.4,159.5 410.6,160.4 C421.9,162.7 429.9,164.4 435.1,165.6 C438.5,166.4 442.3,167 443.6,167 C444.9,167 448.8,167.6 452.4,168.4 C458.4,169.8 463,170.5 489.2,174.5 C498.2,175.9 509.5,177.2 535.4,180.1 C548.3,181.5 587.4,183.6 604.9,183.9 C612.1,183.9 626.2,183.5 636.4,182.9 Z M251.9,175 C260.5,169.3 263.4,166.7 261.6,165.7 C260.7,165.2 241.5,164 231.7,163.9 C224.6,163.8 219.4,165.5 219.4,168 C219.4,169.1 239.3,181 241.2,181 C242,181 246.8,178.3 251.9,175 Z M708.9,150.9 C714.8,147.8 716,144.6 711.9,143 C710.5,142.5 704.8,142 699.2,142 C668.5,142 615.2,135.3 575.9,126.5 C560.7,123.1 558.5,122.8 555.2,123.9 C543.6,127.8 515.4,136.1 509.1,137.5 C507.5,137.8 506.4,138.6 506.7,139.3 C507.1,140.7 514,142.3 529.4,144.4 C579.6,151.3 619.1,153.9 671.4,153.6 L703.9,153.5 L708.9,150.9 Z M355.3,150.5 C407,146.1 448,139.5 491.4,128.4 C497.2,127 503.5,125.4 505.4,125.1 C507.3,124.7 510.5,123.8 512.4,123.2 C514.3,122.5 520.6,120.6 526.4,118.9 C535.1,116.4 552.5,110.7 569.4,104.9 C571.3,104.2 576.3,102.4 580.4,100.7 C584.5,99.1 589.7,97.1 591.9,96.3 C594.1,95.4 596.8,94.4 597.9,93.9 C620.2,84.7 620.2,84.7 618.6,82.4 C618,81.3 599.3,72.9 593.4,71 C592,70.5 587.8,69 584.1,67.6 C576.5,64.8 577.7,64.6 563.4,71.3 C544.2,80.3 523.9,88.9 507.4,95 C493,100.4 491,101.2 487.6,102.6 C485.8,103.4 483.7,104 482.9,104 C482.1,104 480,104.6 478.2,105.4 C476.4,106.2 470.2,108.3 464.4,110 C458.6,111.8 452.1,113.8 449.9,114.5 C447.7,115.2 443,116.6 439.4,117.5 C427.2,120.8 421.9,122.3 417.5,123.6 C415,124.4 412.2,125 411.1,125 C410,125 406.8,125.7 404,126.5 C401.2,127.3 395.3,128.7 390.9,129.5 C386.5,130.4 380,131.8 376.4,132.5 C372.8,133.2 365.2,134.6 359.4,135.5 C353.6,136.4 345.1,137.8 340.4,138.5 C331.8,139.9 312.9,142 290.4,144.1 C283.5,144.8 260.8,145.6 239.9,145.9 C209.2,146.4 202.7,146.7 205.9,147.6 C220.1,151.6 319.4,153.6 355.3,150.5 Z M197.2,144.3 C195.6,144.1 193.2,144.1 191.7,144.3 C190.1,144.5 191.4,144.7 194.4,144.7 C197.4,144.7 198.7,144.5 197.2,144.3 Z M267.9,132 C308.2,130.1 348.1,125.1 383.4,117.5 C387,116.7 393.3,115.4 397.4,114.5 C404.5,113 410.4,111.6 421.9,108.6 C433.6,105.5 440.1,103.7 443.9,102.5 C446.1,101.8 450.6,100.5 453.9,99.5 C457.2,98.5 461,97.3 462.4,96.7 C463.8,96.2 466.3,95.4 467.9,95 C469.6,94.6 476.5,92.2 483.4,89.7 C490.3,87.2 497.5,84.6 499.4,83.9 C506.5,81.5 517.3,77.1 532.4,70.5 C540.9,66.8 549.5,63.2 551.4,62.5 C557.8,60.1 555.6,58.1 542.9,55 C533.3,52.7 520.9,50.2 515.3,49.5 C509.3,48.8 509.4,48.7 493.9,57.5 C481.4,64.6 448.3,80.1 439.4,83 C438,83.5 434.4,84.8 431.4,86 C420.8,90.1 393.5,98.9 380.4,102.4 C367.8,105.9 363.6,107 357.2,108.5 C328.1,115.3 303.5,119.8 275.4,123.4 C250.5,126.6 246.3,127.1 230.4,128.1 C221.3,128.7 213.5,129.5 213,130 C210.2,132.8 232.9,133.6 267.9,132 Z M692.4,127.2 C692.4,126.4 683.5,119.7 671.5,111.6 C668.6,109.6 665,107.7 663.5,107.4 C658.3,106.2 649.7,103.7 639.4,100.3 C628.4,96.7 624.1,96.5 618.5,99.4 C613.6,102 596,109.3 591.9,110.5 C590.8,110.8 588.8,111.9 587.4,113 C584.5,115.2 584.3,115.1 596.9,117.3 C621.4,121.6 637.5,124 657.4,126.4 C670.5,127.9 692.4,128.4 692.4,127.2 Z M239.4,114.5 C281.5,110 315.4,104.5 350.4,96.4 C362.6,93.6 370.4,91.5 384.4,87.5 C387.4,86.6 392.4,85.2 395.4,84.3 C398.4,83.5 402,82.3 403.4,81.8 C404.8,81.2 409.7,79.6 414.4,78 C422.6,75.4 438.7,69.3 444.9,66.5 C446.6,65.8 449.5,64.5 451.4,63.7 C453.3,62.8 461.3,59.1 469.1,55.4 C482,49.3 485.5,46.8 483.8,45.1 C482.7,43.9 424.7,43.8 414.2,44.9 C405.3,45.9 403.4,46.4 399.9,49 C387.6,58.2 370,69 356.4,75.7 C347.9,79.9 340,83.7 339,84.3 C337.9,84.8 335.9,85.6 334.5,86 C333.1,86.5 329.4,87.8 326.4,89 C300.7,99.1 269.2,106.5 233.1,111 C223.3,112.2 219,113.5 219.9,115 C220.7,116.3 222.4,116.3 239.4,114.5 Z M268.5,91.9 C273.7,90.7 279.5,89.5 281.4,89 C285.8,88 295.6,85.4 299.7,84 C323.8,76.3 333,72.8 348.4,65.2 C362.6,58.2 371.3,52.6 370,51.3 C369.6,50.9 345,56.4 340.4,57.9 C339,58.3 335.2,59.5 331.9,60.5 C318.9,64.3 300.3,70.9 289.9,75.4 C276.3,81.3 259.3,89.7 256.4,92 L253.9,94 L256.5,94 C257.9,94 263.3,93.1 268.5,91.9 Z" id="Shape"></path>
                    <path d="M382.3,590.1 C380.7,588.5 379.4,586.1 379.4,584.7 C379.4,582.9 390.9,544.8 395.3,532 C395.8,530.6 397.6,524.8 399.4,519 C401.2,513.2 403.9,504.7 405.4,500 C407,495.3 410.3,484.8 412.9,476.5 C415.4,468.3 418.1,459.7 418.9,457.5 C419.6,455.3 423,444.5 426.4,433.5 C429.7,422.5 433.1,412 433.9,410.2 C434.7,408.4 435.4,406.1 435.4,405.2 C435.4,404.2 436,402.6 436.8,401.5 C437.5,400.4 438.6,398.2 439.3,396.5 L440.4,393.5 L439.9,397 C438.3,407 437.4,412.1 436.1,418 C432.6,433.3 429.2,448.1 427.2,456 C426.1,460.7 424.4,468.3 423.4,473 C422.4,477.7 420,488.7 418,497.5 C416,506.3 412.9,519.6 411.2,527 C409.6,534.4 406.9,546.1 405.3,553 C403.8,559.9 401.6,569.7 400.4,574.8 C397,590.1 395.2,593 389.2,593 C386.2,593 384.6,592.3 382.3,590.1 Z" id="Shape"></path>
                    <path d="M325.4,560.3 C319.5,554.9 320,553.4 332.6,534.5 C421.7,401.5 429.1,390.6 432.7,386.6 C436.8,381.9 433.5,389.1 422.4,409 C419.5,414.2 412.8,426.2 407.6,435.5 C402.4,444.9 396.1,456.1 393.6,460.5 C391.1,464.9 387.9,470.8 386.4,473.5 C381,483.4 378.1,488.5 377.4,489.5 C377,490.1 374.7,494.1 372.4,498.5 C370,502.9 367.2,508.1 366.1,510 C363.7,514.2 355,530 352,535.3 C350.8,537.4 349.4,539.9 348.9,540.8 C348.3,541.7 345.9,546.1 343.5,550.5 C336.5,563.2 331.6,565.8 325.4,560.3 Z" id="Shape"></path>
                    <path d="M556.7,560.2 C554.3,557.7 548.2,547.3 534.8,523.1 C531.6,517.1 528.4,511.5 520.9,498 C518.3,493.3 515.1,487.7 513.9,485.5 C512.7,483.3 509.3,477.2 506.4,472 C503.5,466.8 500.2,460.7 498.9,458.5 C497.7,456.3 493.4,448.7 489.4,441.5 C485.4,434.4 481,426.5 479.6,424 C478.3,421.5 476.3,418.2 475.4,416.5 C471.7,410.4 459.4,387.2 459.4,386.4 C459.4,384.5 462.3,388 470.6,400 C480,413.7 510.6,459.1 513.4,463.5 C514.2,464.8 527.1,483.9 541.9,506 C556.8,528 569.5,547.1 570.1,548.3 C572.3,552.2 571.7,556.9 568.5,560.1 C564.6,563.9 560.5,564 556.7,560.2 Z" id="Shape"></path>
                    <path d="M285.3,521.1 C279.7,518.9 276.8,513.9 278.5,509.2 C279,507.6 283.3,503 288.2,498.8 C293,494.6 301.9,486.8 308,481.4 C314.1,475.9 333.9,458.5 352,442.5 C370,426.6 389.5,409.2 395.4,404 C401.2,398.8 408.8,392 412.3,389 C415.8,386 419.4,382.8 420.3,382 C424.2,378.2 431.4,373 431.4,373.8 C431.4,374.9 420.1,387.3 403.8,404 C397.1,410.9 390.3,417.9 388.8,419.5 C386.2,422.5 355.6,454.4 335.8,475 C330.2,480.8 320.8,490.7 314.8,497 C292.5,520.4 289.7,522.8 285.3,521.1 Z" id="Shape"></path>
                    <path d="M592,510.7 C586.4,505.1 574,492.1 564.4,482 C554.8,471.9 541.3,457.7 534.4,450.5 C527.5,443.4 517.1,432.6 511.4,426.5 C505.6,420.5 495.9,410.4 489.8,404 C483.7,397.7 477.4,391.2 476,389.5 C474.5,387.9 470.7,383.9 467.7,380.7 C464.6,377.5 462.4,374.6 462.8,374.2 C463.2,373.8 464.1,374.2 464.7,375.1 C465.4,376 466.4,376.9 467.1,377.1 C468.1,377.5 529.4,431.1 533.9,435.5 C535,436.7 540,441.1 544.9,445.5 C562.6,461 568.9,466.6 573.9,471 C576.6,473.5 586.3,482.1 595.4,490 C604.5,498 612.7,505.4 613.6,506.5 C616.2,509.5 615.8,514.3 612.8,517.9 C610.7,520.4 609.5,521 606.2,521 C602.3,521 601.5,520.4 592,510.7 Z" id="Shape"></path>
                    <path d="M247.5,465.5 C244.5,461.5 244,458.7 245.9,455.1 C247.3,452.3 257.4,447.1 335.2,408.4 C383.4,384.4 424.1,364.2 425.6,363.4 C427.2,362.5 428.5,362.4 428.9,362.9 C429.2,363.4 428.3,364.5 427,365.2 C425.6,365.9 413.6,373.2 400.2,381.3 C386.8,389.5 375,396.7 373.9,397.3 C372.9,398 370.2,399.6 367.9,401 C365.7,402.3 363.1,403.9 362.1,404.5 C358.8,406.4 296.3,444.5 293.6,446.2 C292.1,447.2 290,448.4 288.9,448.9 C287.8,449.4 285.2,451 283.1,452.4 C281,453.8 279.1,455 278.9,455 C278.7,455 276.5,456.4 274.1,458 C271.6,459.7 269.3,461 268.9,461 C268.6,461 266.3,462.4 263.8,464 C261,466 257.6,467.3 254.6,467.7 C250.1,468.2 249.5,468 247.5,465.5 Z" id="Shape"></path>
                    <path d="M636.9,467.2 C635.7,466.8 631.1,464.3 626.5,461.5 C622,458.8 617.5,456.1 616.6,455.5 C615.6,455 612.6,453.2 609.9,451.6 C607.1,450 601.9,446.7 598.2,444.3 C594.5,442 591.3,440 591,440 C590.7,440 588.6,438.8 586.2,437.3 C583.8,435.7 581,434 579.9,433.3 C578.8,432.7 563.6,423.4 546.1,412.8 C528.6,402.2 512.4,392.4 510.1,391.1 C507.8,389.8 504,387.4 501.6,385.9 C499.2,384.3 497.1,383 496.8,383 C496.5,383 494.4,381.8 492.1,380.3 C485.6,376 484,375 482.4,374.3 C481.6,373.9 478.2,371.8 474.9,369.5 C471.5,367.2 468,365.1 467,364.7 C466.1,364.3 465.6,363.6 465.9,363 C466.3,362.3 467.5,362.5 469.2,363.4 C470.7,364.2 511.5,384.6 559.9,408.7 C644.1,450.6 647.9,452.6 648.8,455.7 C651.1,464.1 645.2,469.8 636.9,467.2 Z" id="Shape"></path>
                    <path d="M228.4,416.3 C219.5,413.2 220.8,400 230.2,398.5 C232.2,398.1 235.9,397.3 238.4,396.5 C240.9,395.8 246.1,394.5 249.9,393.7 C256.2,392.2 272.8,388.3 288.9,384.5 C308.9,379.8 330.8,374.6 340.2,372.4 C343.9,371.6 349.4,370.3 352.4,369.5 C355.4,368.7 361.1,367.4 364.9,366.5 C368.8,365.6 374.4,364.3 377.4,363.5 C380.4,362.7 386.3,361.4 390.4,360.4 C394.5,359.5 399.9,358.1 402.3,357.4 C404.8,356.6 407.9,356 409.2,356 C410.5,356 413.8,355.2 416.5,354.3 C420.2,353 421.6,352.8 422.5,353.7 C423.4,354.6 423,355 420.8,355.5 C419.2,355.8 417.1,356.5 416.2,357.1 C415.2,357.6 411.4,359 407.7,360.1 C403.9,361.3 399.3,362.8 397.4,363.5 C395.5,364.2 387.2,366.9 378.9,369.5 C370.7,372.1 362.3,374.8 360.4,375.5 C357.2,376.7 337.5,383.1 290.4,398.2 C280.2,401.5 270.3,404.8 268.4,405.5 C261.5,408.1 235.8,415.9 232.9,416.3 C231.3,416.6 229.2,416.5 228.4,416.3 Z" id="Shape"></path>
                    <path d="M644.4,411.3 C637,408.8 629.3,406.2 627.4,405.5 C625.5,404.8 615.1,401.4 604.4,397.9 C572.7,387.7 540.1,377.1 536.9,375.9 C535.3,375.3 532.6,374.5 530.9,374 C529.3,373.6 526.8,372.8 525.4,372.2 C524,371.7 516.2,369 507.9,366.4 C484.4,359 481.4,358 479.6,357 C478.7,356.5 476.7,355.9 475.2,355.5 C473.6,355.2 472.4,354.5 472.4,354 C472.4,352.5 475.9,352.8 480.1,354.5 C482,355.3 484.6,356 485.8,356 C487.6,356 498.1,358.4 518.4,363.5 C521.4,364.2 526.9,365.6 530.7,366.4 C534.4,367.3 540.2,368.7 543.7,369.5 C556.3,372.5 576.1,377.1 582.4,378.6 C586,379.4 591.4,380.7 594.4,381.5 C599.7,382.8 607.1,384.6 620.4,387.6 C624,388.5 629.4,389.7 632.4,390.5 C635.4,391.3 640.8,392.5 644.4,393.4 C671.2,399.7 672.4,400.3 672.4,407.5 C672.4,410.5 671.8,412.2 670.1,413.8 C666.6,417.1 660.1,416.5 644.4,411.3 Z" id="Shape"></path>
                </g>
            </g>
            <polyline id="Path-2" stroke="#FFFFFF" stroke-width="30" stroke-linejoin="round" points="1107 604.14881 1107 355.304371 1283.88264 588.809228 1283.88264 340"></polyline>
            <path d="M1479,340 L1479,500.790652 C1479,550.28453 1519.12272,590.407246 1568.61659,590.407246 L1568.61659,590.407246 C1618.11047,590.407246 1658.23319,550.28453 1658.23319,500.790652 L1658.23319,340" id="Path-3" stroke="#FFFFFF" stroke-width="30"></path>
            <path d="M1803.84799,355 L2016.84799,355" id="Path-4" stroke="#FFFFFF" stroke-width="30"></path>
            <path d="M1915,369 L1915,604.752063" id="Path-5" stroke="#FFFFFF" stroke-width="30"></path>
            <path d="M2171,604.148804 L2171,340" id="Path-6" stroke="#FFFFFF" stroke-width="30"></path>
            <path d="M2185.95139,478.068934 L2253.86862,478.564018 C2287.60544,478.809944 2315.1539,451.660207 2315.39982,417.923385 C2315.40091,417.774958 2315.40145,417.626528 2315.40145,417.478097 L2315.40145,417.478097 C2315.40145,383.424401 2287.92134,355.752118 2253.86847,355.514799 L2180,355" id="Path-7" stroke="#FFFFFF" stroke-width="30"></path>
            <path d="M2253,480 L2342.65332,597.563603" id="Path-8" stroke="#FFFFFF" stroke-width="30"></path>
            <polyline id="Path-9" stroke="#FFFFFF" stroke-width="30" points="2664.98402 356 2514 356 2514 588.275725 2673.44863 588.275725"></polyline>
            <path d="M2517,463 L2630.82409,463" id="Path-10" stroke="#FFFFFF" stroke-width="30"></path>
            <polyline id="Path-9" stroke="#FFFFFF" stroke-width="30" points="2982.98402 356 2832 356 2832 588.275725 2991.44863 588.275725"></polyline>
            <path d="M2836,463 L2949.82409,463" id="Path-10" stroke="#FFFFFF" stroke-width="30"></path>
        </g>
    </g>
</svg>